Coordinates
version=1
nRows=26
nColumns=24
inDegrees=yes

Units are S.I. units (second, meters, Newtons, ...)
Angles are in degrees.

endheader
time	pelvis_tilt	pelvis_list	pelvis_rotation	pelvis_tx	pelvis_ty	pelvis_tz	hip_flexion_r	hip_adduction_r	hip_rotation_r	knee_angle_r	ankle_angle_r	subtalar_angle_r	mtp_angle_r	hip_flexion_l	hip_adduction_l	hip_rotation_l	knee_angle_l	ankle_angle_l	subtalar_angle_l	mtp_angle_l	lumbar_extension	lumbar_bending	lumbar_rotation
      0.01000000	     63.19260263	     -9.27071172	     -4.96569452	      0.41828919	      1.04875301	     -0.34879414	     12.86176780	      1.34977085	     10.81129747	    -23.88427317	     -0.21087362	     42.42509692	      0.00000000	      0.70842630	    -19.68383612	      0.64196971	    -61.33693237	     23.04176283	     31.10366503	      0.00000000	      0.00000000	      0.00000000	      0.00000000
      0.02000000	     63.12205631	     -9.28157239	     -4.99781836	      0.41830220	      1.04891033	     -0.34886413	     12.77688265	      1.32833187	     10.81856830	    -23.76993939	     -0.16505030	     42.48888017	      0.00000000	      0.76051805	    -19.68666828	      0.61491528	    -61.32579325	     23.04151444	     31.10258179	      0.00000000	      0.00000000	      0.00000000	      0.00000000
      0.03000000	     63.08651991	     -9.28808775	     -5.01145672	      0.41829199	      1.04899820	     -0.34890188	     12.72947347	      1.31729656	     10.83904391	    -23.80767283	     -0.11793751	     42.57641047	      0.00000000	      0.78572468	    -19.68479348	      0.60798029	    -61.31485493	     23.03849114	     31.09956015	      0.00000000	      0.00000000	      0.00000000	      0.00000000
      0.04000000	     63.07117191	     -9.29042812	     -5.01244948	      0.41826812	      1.04903820	     -0.34891752	     12.71012245	      1.31211957	     10.86476756	    -23.94640632	     -0.06616760	     42.67773766	      0.00000000	      0.79817405	    -19.67870132	      0.61473912	    -61.30558496	     23.03404334	     31.09487343	      0.00000000	      0.00000000	      0.00000000	      0.00000000
      0.05000000	     63.06204610	     -9.28884853	     -5.00724319	      0.41824147	      1.04904915	     -0.34892516	     12.71101205	      1.30820651	     10.88474374	    -24.14019770	     -0.00746885	     42.78116473	      0.00000000	      0.81097857	    -19.66899261	      0.62800461	    -61.29904509	     23.02973332	     31.08887502	      0.00000000	      0.00000000	      0.00000000	      0.00000000
      0.06000000	     63.05105656	     -9.28391829	     -5.00135354	      0.41822022	      1.04903634	     -0.34893913	     12.72932164	      1.30240478	     10.88681079	    -24.36634094	      0.05795146	     42.87667209	      0.00000000	      0.83059986	    -19.65632472	      0.64156628	    -61.29531486	     23.02688374	     31.08197542	      0.00000000	      0.00000000	      0.00000000	      0.00000000
      0.07000000	     63.03695054	     -9.27673536	     -4.99852898	      0.41820705	      1.04898677	     -0.34896546	     12.76705420	      1.29389537	     10.86030921	    -24.62713906	      0.12748414	     42.95843355	      0.00000000	      0.85490464	    -19.64123272	      0.65097885	    -61.29369167	     23.02623901	     31.07467734	      0.00000000	      0.00000000	      0.00000000	      0.00000000
      0.08000000	     63.02331718	     -9.26870805	     -5.00014565	      0.41820130	      1.04889348	     -0.34899656	     12.82771509	      1.28485184	     10.79985934	    -24.93654804	      0.19741355	     43.02604411	      0.00000000	      0.87556690	    -19.62381540	      0.65363275	    -61.29336481	     23.02779669	     31.06762443	      0.00000000	      0.00000000	      0.00000000	      0.00000000
      0.09000000	     63.01557384	     -9.26081831	     -5.00506070	      0.41821011	      1.04880928	     -0.34902287	     12.91104673	      1.28034288	     10.70953198	    -25.29905532	      0.26474198	     43.08433193	      0.00000000	      0.88423750	    -19.60391025	      0.64862012	    -61.29374387	     23.03087860	     31.06157197	      0.00000000	      0.00000000	      0.00000000	      0.00000000
      0.10000000	     63.01708549	     -9.25305413	     -5.01077159	      0.41824528	      1.04884246	     -0.34905396	     13.00694224	      1.28603181	     10.60527070	    -25.69288698	      0.32859541	     43.14186912	      0.00000000	      0.87943982	    -19.58241160	      0.63695049	    -61.29397941	     23.03440737	     31.05722538	      0.00000000	      0.00000000	      0.00000000	      0.00000000
      0.11000000	     63.02430893	     -9.24538707	     -5.01550807	      0.41828954	      1.04901043	     -0.34910807	     13.09165598	      1.30333336	     10.51276675	    -26.06897888	      0.39041609	     43.20853317	      0.00000000	      0.86902281	    -19.56283778	      0.62185657	    -61.29231327	     23.03722731	     31.05501286	      0.00000000	      0.00000000	      0.00000000	      0.00000000
      0.12000000	     63.02635536	     -9.24031716	     -5.01902962	      0.41828756	      1.04912751	     -0.34916012	     13.13390892	      1.32554310	     10.45927894	    -26.36892062	      0.45280769	     43.29268030	      0.00000000	      0.86490062	    -19.55072598	      0.60800276	    -61.28637984	     23.03833831	     31.05494488	      0.00000000	      0.00000000	      0.00000000	      0.00000000
      0.13000000	     63.01586308	     -9.24281435	     -5.02109770	      0.41822340	      1.04904824	     -0.34914853	     13.11462518	      1.34143236	     10.46140413	    -26.55309033	      0.51776276	     43.39866234	      0.00000000	      0.87345495	    -19.55001329	      0.59915171	    -61.27462166	     23.03705474	     31.05664827	      0.00000000	      0.00000000	      0.00000000	      0.00000000
      0.14000000	     62.99858309	     -9.25449522	     -5.02033952	      0.41815198	      1.04891169	     -0.34907786	     13.04151453	      1.34590285	     10.51566087	    -26.62310569	      0.58543949	     43.52539964	      0.00000000	      0.89001037	    -19.55943254	      0.59588091	    -61.25764842	     23.03316625	     31.05950572	      0.00000000	      0.00000000	      0.00000000	      0.00000000
      0.15000000	     62.98630701	     -9.27008535	     -5.01577850	      0.41810595	      1.04890168	     -0.34902946	     12.94034642	      1.34437971	     10.59973105	    -26.62411833	      0.65426998	     43.66625963	      0.00000000	      0.90251356	    -19.57278436	      0.59548763	    -61.23821131	     23.02709247	     31.06277313	      0.00000000	      0.00000000	      0.00000000	      0.00000000
      0.16000000	     62.98608736	     -9.28283482	     -5.00873473	      0.41806922	      1.04900453	     -0.34903719	     12.83814818	      1.34473396	     10.68406515	    -26.62359984	      0.72218609	     43.81023982	      0.00000000	      0.90078169	    -19.58294472	      0.59411614	    -61.21981912	     23.01990297	     31.06564122	      0.00000000	      0.00000000	      0.00000000	      0.00000000
      0.17000000	     62.99798880	     -9.28995825	     -5.00240085	      0.41803478	      1.04911452	     -0.34905571	     12.75492573	      1.34942053	     10.74490118	    -26.68011424	      0.78791952	     43.94454077	      0.00000000	      0.88327554	    -19.58586407	      0.58910927	    -61.20533195	     23.01305959	     31.06731644	      0.00000000	      0.00000000	      0.00000000	      0.00000000
      0.18000000	     63.01669291	     -9.29180876	     -4.99960212	      0.41801144	      1.04917398	     -0.34904839	     12.70165835	      1.35623284	     10.77131479	    -26.82103097	      0.85143741	     44.05793918	      0.00000000	      0.85720065	    -19.58162742	      0.57998918	    -61.19636268	     23.00791437	     31.06717867	      0.00000000	      0.00000000	      0.00000000	      0.00000000
      0.19000000	     63.03418030	     -9.28965872	     -5.00085012	      0.41800450	      1.04918523	     -0.34902432	     12.68111475	      1.36233421	     10.76533179	    -27.03831113	      0.91343508	     44.14363347	      0.00000000	      0.83372190	    -19.57290507	      0.56809484	    -61.19316593	     23.00521575	     31.06496080	      0.00000000	      0.00000000	      0.00000000	      0.00000000
      0.20000000	     63.04318736	     -9.28509487	     -5.00445214	      0.41801433	      1.04917361	     -0.34900483	     12.68983624	      1.36635516	     10.73740242	    -27.30018223	      0.97454059	     44.20056911	      0.00000000	      0.82235413	    -19.56300820	      0.55577889	    -61.19462279	     23.00489034	     31.06084225	      0.00000000	      0.00000000	      0.00000000	      0.00000000
      0.21000000	     63.03955190	     -9.27993532	     -5.00834163	      0.41803521	      1.04915986	     -0.34900024	     12.71954715	      1.36840814	     10.70027310	    -27.57011080	      1.03496069	     44.23315665	      0.00000000	      0.82725958	    -19.55473411	      0.54563004	    -61.19846112	     23.00620191	     31.05541730	      0.00000000	      0.00000000	      0.00000000	      0.00000000
      0.22000000	     63.02321616	     -9.27604073	     -5.01150357	      0.41805783	      1.04914778	     -0.34900810	     12.75873892	      1.36947308	     10.66420387	    -27.82253371	      1.09485752	     44.25002587	      0.00000000	      0.84620882	    -19.54954953	      0.53961406	    -61.20197926	     23.00820184	     31.04958860	      0.00000000	      0.00000000	      0.00000000	      0.00000000
      0.23000000	     62.99880351	     -9.27475151	     -5.01388548	      0.41807935	      1.04913390	     -0.34901544	     12.79547089	      1.37124199	     10.63513015	    -28.04864492	      1.15521795	     44.26266652	      0.00000000	      0.87198457	    -19.54684361	      0.53824670	    -61.20315732	     23.01027137	     31.04444484	      0.00000000	      0.00000000	      0.00000000	      0.00000000
      0.24000000	     62.97484601	     -9.27594517	     -5.01555686	      0.41810165	      1.04912107	     -0.34900929	     12.81979215	      1.37598488	     10.61560620	    -28.25263022	      1.21865601	     44.28447100	      0.00000000	      0.89536237	    -19.54402956	      0.54024878	    -61.20167275	     23.01253753	     31.04113008	      0.00000000	      0.00000000	      0.00000000	      0.00000000
      0.25000000	     62.96080401	     -9.27772407	     -5.01624316	      0.41811463	      1.04912003	     -0.34899687	     12.82435255	      1.38491634	     10.60726277	    -28.44333461	      1.28958424	     44.33008769	      0.00000000	      0.90818577	    -19.53829524	      0.54302478	    -61.19927335	     23.01598697	     31.04067574	      0.00000000	      0.00000000	      0.00000000	      0.00000000
      0.26000000	     62.96328685	     -9.27770299	     -5.01554971	      0.41808844	      1.04914968	     -0.34900924	     12.80422630	      1.39503835	     10.61294590	    -28.62678557	      1.37349323	     44.41453549	      0.00000000	      0.90512401	    -19.52933526	      0.54380449	    -61.19912830	     23.02219113	     31.04378239	      0.00000000	      0.00000000	      0.00000000	      0.00000000
